<svg width="96" height="52" viewBox="0 0 96 52" fill="none" xmlns="http://www.w3.org/2000/svg">
<path fill-rule="evenodd" clip-rule="evenodd" d="M52.405 49.5644C58.7661 52.5601 67.5386 50.5107 74.9999 47.1173C81.9594 43.9517 89.8709 38.6552 93.8975 31.949C96.4534 27.6954 95.8821 23.1211 93.8731 19.0983H86.1726C81.4107 19.0983 79.0255 21.4825 79.0255 26.2519V37.4847H75.965V26.2519C75.965 19.4406 79.3679 16.0378 86.1726 16.0378H92.0085C91.4738 15.2978 90.8989 14.5896 90.2977 13.9208C88.5212 11.9446 85.8387 10.0763 83.5267 8.30449C81.2953 6.59463 78.8745 5.25057 75.6593 3.74893C70.117 1.15929 61.3173 -1.20433 54.974 0.679052C51.2438 1.78582 49.7619 3.56696 48.0426 6.23821C47.6825 6.23821 45.5393 10.6456 44.7824 15.3775C43.413 23.9493 43.065 45.1654 52.405 49.5644ZM71.3626 17.5713C70.0035 17.5713 69.3197 16.8876 69.3197 15.5285C69.3197 14.1619 70.0035 13.4847 71.3626 13.4847C72.7301 13.4847 73.4063 14.1619 73.4063 15.5285C73.4063 16.8876 72.7301 17.5713 71.3626 17.5713ZM69.8356 37.4847V24.4558L66.7676 25.1733V30.3376C66.7676 35.1005 64.3834 37.4847 59.614 37.4847H52.4678C47.6984 37.4847 45.3207 35.4418 45.3207 31.3552C45.3207 28.3857 46.3525 26.6843 48.4234 26.2519L51.0694 25.6498L63.678 22.7628C63.5542 20.3204 62.1952 19.0983 59.614 19.0983H52.4678C49.7412 19.0983 48.3812 20.4639 48.3812 23.1839H45.3207C45.3207 18.422 47.6984 16.0369 52.4678 16.0369H59.614C63.9951 16.0369 66.3624 18.0487 66.7198 22.0668L72.897 20.6534V37.4847H69.8356ZM59.614 34.4167C62.3406 34.4167 63.6996 33.0576 63.6996 30.3376V25.9452L49.2188 29.2712C48.6607 29.4662 48.3812 29.8152 48.3812 30.3376C48.3812 33.0576 49.7412 34.4167 52.4678 34.4167H59.614Z" fill="url(#paint0_linear_1218_8368)"/>
<path fill-rule="evenodd" clip-rule="evenodd" d="M13.3526 17.5673C17.7561 18.7302 20.746 22.4981 20.746 27.444C20.746 33.4339 16.3629 37.7347 10.3933 37.7347C4.41866 37.7347 0 33.4339 0 27.444C0 22.9501 2.48643 19.4284 6.25427 17.9497V20.7057C4.13899 22.0221 2.79155 24.4079 2.79155 27.444C2.79155 32.1668 6.05089 35.3153 10.3933 35.3153C14.7357 35.3153 17.9544 32.1668 17.9544 27.444C17.9544 23.8801 16.1188 21.2126 13.3526 20.1183V17.5673ZM34.0478 17.192C30.519 17.192 27.763 18.6127 26.2884 21.0702V17.3456H23.6545V37.5425H26.4053V26.9447C26.4053 22.3373 29.1613 19.6495 33.5393 19.6495C37.419 19.6495 39.6665 21.838 39.6665 26.1001V37.5425H42.4225V25.8316C42.4225 20.0334 39.0106 17.192 34.0478 17.192ZM11.5679 14.8744C11.5679 14.4035 11.3798 13.952 11.0442 13.6195C10.7137 13.2864 10.2611 13.0998 9.79327 13.0998H9.78825C9.32044 13.0998 8.86785 13.2864 8.53225 13.6195C8.20174 13.952 8.01359 14.4035 8.01359 14.8744V26.4825C8.01359 26.9533 8.20174 27.4044 8.53225 27.7374C8.86785 28.07 9.32044 28.2571 9.78825 28.2571H9.79327C10.2611 28.2571 10.7137 28.07 11.0442 27.7374C11.3798 27.4044 11.5679 26.9533 11.5679 26.4825V14.8744Z" fill="#373435"/>
<defs>
<linearGradient id="paint0_linear_1218_8368" x1="93.0918" y1="72.7389" x2="67.5286" y2="8.38346" gradientUnits="userSpaceOnUse">
<stop stop-color="#8E04B7"/>
<stop offset="1" stop-color="#E13C52"/>
</linearGradient>
</defs>
</svg>
