<svg width="97" height="53" viewBox="0 0 97 53" fill="none" xmlns="http://www.w3.org/2000/svg">
<path fill-rule="evenodd" clip-rule="evenodd" d="M53.4101 50.7078C59.7966 53.7129 68.6086 51.6536 76.1036 48.2468C83.0952 45.0637 91.0427 39.745 95.0902 33.0096C97.6529 28.7364 97.0834 24.1418 95.0648 20.1009H87.3257C82.546 20.1009 80.151 22.4968 80.151 27.2872V38.5704H77.0748V27.2872C77.0748 20.4441 80.4917 17.0266 87.3257 17.0266H93.1885C92.6546 16.2837 92.0749 15.5718 91.4698 14.8996C89.6851 12.915 86.9952 11.0392 84.6714 9.25801C82.429 7.54087 79.9985 6.19037 76.7646 4.68222C71.2018 2.08134 62.3593 -0.293274 55.9881 1.59878C52.2406 2.71032 50.7507 4.50017 49.027 7.18291C48.6609 7.18291 46.51 11.6103 45.7523 16.363C44.3744 24.9741 44.0235 46.2891 53.4101 50.7078ZM70.917 38.5704V25.4821L67.8357 26.2037V31.3911C67.8357 36.1749 65.4407 38.5704 60.6508 38.5704H53.4711C48.6812 38.5704 46.2914 36.5182 46.2914 32.4137C46.2914 29.4304 47.3287 27.7214 49.4083 27.2867L52.0677 26.6816L64.734 23.7823C64.6068 21.3283 63.2441 20.1009 60.6508 20.1009H53.4711C50.7304 20.1009 49.3676 21.4732 49.3676 24.2053H46.2914C46.2914 19.4215 48.6812 17.0261 53.4711 17.0261H60.6508C65.0492 17.0261 67.4289 19.0468 67.7848 23.0836L73.9934 21.6629V38.5704H70.917ZM14.1554 17.7822C18.5588 18.9451 21.5487 22.7129 21.5487 27.6589C21.5487 33.6488 17.1656 37.9495 11.196 37.9495C5.2214 37.9495 0.802734 33.6488 0.802734 27.6589C0.802734 23.165 3.28917 19.6432 7.057 18.1646V20.9205C4.94173 22.237 3.59429 24.6228 3.59429 27.6589C3.59429 32.3817 6.85362 35.5302 11.196 35.5302C15.5385 35.5302 18.7571 32.3817 18.7571 27.6589C18.7571 24.095 16.9215 21.4275 14.1554 20.3332V17.7822ZM34.8506 17.4069C31.3217 17.4069 28.5657 18.8276 27.0911 21.2851V17.5605H24.4572V37.7573H27.2081V27.1596C27.2081 22.5522 29.9641 19.8644 34.3421 19.8644C38.2218 19.8644 40.4692 22.0529 40.4692 26.315V37.7573H43.2252V26.0465C43.2252 20.2483 39.8133 17.4069 34.8506 17.4069ZM60.6508 35.489C63.3865 35.489 64.7542 34.1227 64.7542 31.3911V26.9786L50.2066 30.3198C49.6473 30.5155 49.3676 30.8659 49.3676 31.3911C49.3676 34.1227 50.7304 35.489 53.4711 35.489H60.6508ZM12.3707 15.0893C12.3707 14.6184 12.1825 14.1669 11.8469 13.8343C11.5164 13.5013 11.0638 13.3147 10.596 13.3147H10.591C10.1232 13.3147 9.67058 13.5013 9.33499 13.8343C9.00447 14.1669 8.81633 14.6184 8.81633 15.0893V26.6974C8.81633 27.1682 9.00447 27.6192 9.33499 27.9523C9.67058 28.2848 10.1232 28.472 10.591 28.472H10.596C11.0638 28.472 11.5164 28.2848 11.8469 27.9523C12.1825 27.6192 12.3707 27.1682 12.3707 26.6974V15.0893ZM72.4527 18.5668C71.0848 18.5668 70.3984 17.8803 70.3984 16.5145C70.3984 15.1416 71.0848 14.4623 72.4527 14.4623C73.8255 14.4623 74.5018 15.1416 74.5018 16.5145C74.5018 17.8803 73.8255 18.5668 72.4527 18.5668Z" fill="white"/>
</svg>
